<?xml version="1.0" standalone="no"?>
<!DOCTYPE svg PUBLIC "-//W3C//DTD SVG 20010904//EN"
 "http://www.w3.org/TR/2001/REC-SVG-20010904/DTD/svg10.dtd">
<svg version="1.0" xmlns="http://www.w3.org/2000/svg"
 width="2000.000000pt" height="676.000000pt" viewBox="0 0 2000.000000 676.000000"
 preserveAspectRatio="xMidYMid meet">

<g transform="translate(0.000000,676.000000) scale(0.100000,-0.100000)"
fill="#000000" stroke="none">
<path d="M2405 6714 c-16 -2 -73 -9 -125 -15 -218 -25 -515 -107 -715 -197
-697 -316 -1215 -896 -1428 -1602 -73 -241 -101 -439 -101 -705 0 -266 28
-464 101 -705 239 -792 864 -1427 1663 -1690 252 -83 448 -118 725 -127 634
-21 1200 159 1630 519 122 102 317 306 388 405 242 340 376 747 407 1235 9
143 0 419 -15 494 -3 13 -7 35 -10 49 l-5 25 -1160 0 -1160 0 0 -340 0 -340
825 0 c811 0 825 0 825 -19 0 -45 -44 -241 -75 -336 -59 -180 -139 -328 -242
-445 -133 -153 -350 -318 -524 -399 -419 -197 -979 -224 -1418 -69 -606 214
-1058 739 -1180 1371 -120 623 66 1252 500 1686 328 327 738 505 1213 527 468
22 924 -137 1266 -441 l53 -47 238 238 239 238 -28 29 c-46 50 -236 202 -324
260 -315 208 -614 323 -998 382 -100 15 -496 29 -565 19z"/>
<path d="M6720 4914 c-433 -52 -757 -207 -1036 -496 -368 -383 -520 -942 -402
-1487 134 -627 624 -1103 1265 -1232 152 -30 408 -37 563 -15 710 103 1245
614 1371 1312 31 168 31 430 0 598 -57 316 -198 597 -410 819 -250 261 -549
420 -906 483 -87 15 -373 27 -445 18z m338 -650 c601 -123 919 -836 638 -1429
-155 -328 -463 -527 -816 -529 -357 -2 -669 199 -827 530 -137 288 -134 642 7
929 127 259 356 441 625 498 94 21 277 21 373 1z"/>
<path d="M13701 4909 c-321 -37 -638 -191 -884 -428 -520 -502 -661 -1250
-357 -1889 216 -454 613 -776 1095 -888 107 -25 139 -28 300 -28 156 0 193 3
275 23 223 56 394 147 525 280 91 93 95 90 95 -83 0 -285 -33 -466 -117 -636
-39 -79 -62 -110 -138 -186 -77 -78 -104 -98 -185 -138 -52 -25 -121 -53 -154
-61 -159 -40 -360 -44 -496 -9 -234 60 -451 237 -570 466 -23 43 -44 78 -49
78 -12 0 -585 -240 -594 -250 -10 -9 57 -147 117 -240 190 -293 484 -523 803
-629 145 -49 274 -71 443 -78 820 -31 1406 415 1559 1187 45 230 44 194 48
1843 l4 1577 -336 0 -335 0 0 -135 c0 -113 -2 -135 -15 -135 -8 0 -43 28 -77
62 -228 224 -597 339 -957 297z m429 -650 c300 -75 545 -334 630 -670 67 -263
43 -547 -66 -778 -116 -245 -293 -402 -541 -478 -78 -24 -104 -26 -233 -26
-128 0 -155 3 -233 27 -325 98 -552 338 -644 681 -24 90 -26 117 -26 275 0
158 2 185 26 275 32 120 107 276 175 365 216 285 572 413 912 329z"/>
<path d="M18190 4909 c-100 -12 -268 -54 -358 -90 -210 -83 -349 -175 -513
-339 -250 -249 -382 -513 -451 -900 -8 -47 -13 -154 -13 -285 0 -179 4 -227
23 -324 134 -665 606 -1140 1264 -1273 97 -20 143 -23 328 -22 232 0 318 12
503 70 302 95 601 312 804 583 l41 55 -275 184 c-151 101 -279 180 -282 175
-4 -4 -31 -38 -59 -74 -99 -127 -205 -213 -344 -279 -190 -91 -406 -111 -625
-60 -156 37 -289 114 -396 230 -84 90 -177 233 -159 243 4 3 493 206 1087 452
594 246 1081 448 1082 449 5 5 -139 343 -172 402 -241 434 -591 706 -1017 789
-99 20 -361 28 -468 14z m418 -640 c164 -41 318 -148 378 -263 16 -30 26 -57
24 -60 -4 -3 -1359 -569 -1447 -603 -32 -13 0 239 47 367 110 303 386 530 703
581 72 11 204 1 295 -22z"/>
</g>
</svg>
